<?xml version="1.0" encoding="UTF-8"?>
<!-- Generated by Pixelmator Pro 3.5.7 -->
<svg width="1400" height="1400" viewBox="0 0 1400 1400" xmlns="http://www.w3.org/2000/svg">
    <path id="Trazado-copia" fill="#762d13" fill-rule="evenodd" stroke="none" d="M 1900 -500 L -500 -500 L -500 1900 L 1900 1900 L 1900 -500"/>
    <path id="Trazado-copia-9" fill="#ffffff" fill-rule="evenodd" stroke="none" d="M 412.449219 789.53125 C 411.128906 793.371094 410.449219 797.269531 410.449219 801.230469 C 410.449219 855.921875 540.191406 900.320313 700 900.320313 C 859.808594 900.320313 989.550781 855.921875 989.550781 801.230469 C 989.550781 797.269531 988.878906 793.371094 987.550781 789.53125 C 1084.550781 809.488281 1146.199219 839.339844 1146.199219 872.679688 C 1146.199219 932.714844 946.269531 981.460938 700 981.460938 C 453.730469 981.460938 253.800781 932.71875 253.800781 872.679688 C 253.800781 839.339844 315.449219 809.488281 412.449219 789.53125"/>
    <path id="Trazado-copia-8" fill="#ffffff" fill-rule="evenodd" stroke="none" d="M 1016.96875 1279.484375 C 1006.199219 1226.886719 1024.011719 1156.894531 1054.660156 1156.894531 C 1065.839844 1156.894531 1071.21875 1174.703125 1073.300781 1195.824219 C 1076.191406 1227.710938 1054.238281 1261.675781 1020.691406 1277.414063 Z M 600.320313 1309.71875 C 600.320313 1270.371094 645.878906 1256.292969 659.960938 1227.710938 C 660.378906 1245.523438 659.128906 1262.503906 659.128906 1274.101563 L 659.140625 1306.40625 C 659.140625 1307.648438 659.128906 1308.890625 659.550781 1310.132813 C 652.511719 1326.285156 640.910156 1341.613281 626 1341.613281 C 611.921875 1341.613281 600.320313 1330.839844 600.320313 1309.71875 Z M 805.328125 1359.003906 L 809.058594 1359.003906 L 809.058594 1251.734375 L 819.410156 1242.625 L 865.390625 1327.53125 C 875.328125 1346.578125 896.449219 1359.003906 917.570313 1359.003906 L 951.121094 1359.003906 L 884.441406 1244.285156 C 873.671875 1226.058594 858.761719 1218.191406 843.019531 1221.089844 L 925.441406 1147.78125 L 878.230469 1147.78125 L 878.230469 1149.4375 C 884.851563 1152.339844 888.578125 1162.277344 864.140625 1184.230469 L 809.058594 1233.511719 L 809.058594 1094.355469 C 809.058594 1062.878906 787.941406 1041.757813 756.460938 1041.757813 L 752.730469 1041.757813 L 752.730469 1306.40625 C 752.730469 1337.878906 773.851563 1359.003906 805.328125 1359.003906 Z M 1122.578125 1312.203125 C 1123.820313 1306.40625 1120.089844 1301.851563 1113.46875 1301.851563 L 1112.230469 1301.851563 C 1108.5 1325.453125 1090.28125 1335.394531 1070.808594 1335.394531 C 1043.890625 1335.394531 1027.738281 1316.34375 1019.871094 1290.671875 L 1048.859375 1281.972656 C 1109.738281 1264.160156 1139.558594 1205.765625 1107.25 1168.90625 C 1091.929688 1151.921875 1077.851563 1145.292969 1055.070313 1145.292969 C 918.398438 1145.292969 918.808594 1361.488281 1054.660156 1361.488281 C 1092.761719 1361.488281 1116.371094 1334.984375 1122.578125 1312.203125 Z M 309.171875 1211.976563 C 309.171875 1310.132813 377.921875 1361.488281 436.730469 1361.488281 C 477.320313 1361.488281 512.929688 1337.46875 518.320313 1287.351563 C 519.148438 1279.898438 513.761719 1274.101563 505.480469 1274.101563 L 504.238281 1274.101563 C 504.238281 1318.003906 479.390625 1341.195313 450.808594 1341.195313 C 412.710938 1341.195313 368.390625 1299.78125 368.390625 1211.976563 C 368.390625 1142.8125 392.410156 1073.648438 439.628906 1073.648438 C 451.640625 1073.648438 460.339844 1076.960938 465.308594 1081.929688 C 478.96875 1098.082031 451.640625 1103.054688 451.640625 1123.757813 C 451.640625 1139.082031 466.960938 1148.199219 482.699219 1148.199219 C 498.441406 1148.199219 515 1138.671875 515 1116.304688 C 515 1111.335938 514.179688 1107.195313 512.519531 1103.46875 C 502.988281 1084 475.660156 1063.289063 440.039063 1063.289063 C 352.660156 1063.289063 309.171875 1137.429688 309.171875 1211.976563 Z M 618.960938 1156.476563 C 645.460938 1156.476563 654.160156 1180.085938 657.480469 1202.035156 C 659.550781 1244.695313 539.851563 1245.527344 539.851563 1309.71875 C 539.851563 1341.195313 573.808594 1362.320313 608.609375 1362.320313 C 633.039063 1362.316406 651.261719 1346.578125 662.859375 1327.53125 C 670.320313 1346.996094 688.121094 1359.003906 711.730469 1359.003906 L 715.460938 1359.003906 L 715.460938 1255.878906 C 715.460938 1182.984375 698.480469 1143.226563 636.769531 1143.226563 C 613.160156 1143.226563 581.679688 1151.09375 563.460938 1175.53125 C 559.320313 1180.5 556.421875 1186.714844 556.421875 1194.582031 C 556.421875 1216.117188 572.570313 1227.300781 588.308594 1227.300781 C 602.808594 1227.300781 617.300781 1217.359375 617.300781 1197.066406 C 617.300781 1170.5625 579.609375 1180.085938 596.589844 1164.347656 C 602.808594 1159.378906 611.089844 1156.476563 618.960938 1156.476563"/>
    <path id="Trazado-copia-7" fill="#ffffff" fill-rule="evenodd" stroke="none" d="M 936.578125 377.089844 C 970.539063 385.460938 992.71875 393.230469 1006.941406 404.28125 C 1024.039063 417.558594 1026.511719 436.121094 1024.050781 467.511719 L 1013.730469 649.78125 C 1012.488281 658.480469 1008.550781 679.820313 993.890625 691.441406 C 986.171875 697.570313 974.75 696.648438 958.03125 690.921875 C 933.171875 682.761719 906.691406 667.679688 882.441406 659.78125 C 864.519531 653.941406 847.320313 651.949219 832.03125 653.890625 C 805.429688 657.53125 784.648438 672.75 768.640625 696.308594 C 751.910156 720.941406 740.988281 756.988281 726.960938 787.609375 C 718.859375 805.289063 712.480469 823.910156 692.238281 822.769531 C 671.511719 821.75 659.78125 811.261719 652.671875 796.058594 C 634.640625 757.511719 634.050781 702.230469 621.921875 664.109375 C 612.078125 633.210938 596.238281 611.109375 568.910156 604.949219 C 552.101563 601.160156 536.949219 602.128906 523.011719 607.191406 C 495.03125 617.339844 472.5 643.238281 451.011719 661.808594 C 438.921875 672.25 427.78125 681.101563 413.960938 674.511719 C 403.429688 669.480469 398.871094 654.160156 394.789063 632.859375 C 388.429688 599.558594 385.808594 553.121094 380.019531 501.511719 C 379.488281 553.941406 376.351563 600.808594 378.769531 634.949219 C 380.929688 665.238281 389.199219 685.710938 403.039063 694.378906 C 418.121094 703.820313 432.851563 702.710938 447.820313 696.699219 C 466.941406 689.03125 486.488281 670.328125 508.140625 656.148438 C 522.921875 646.46875 538.878906 639.308594 557.53125 645.621094 C 574.460938 651.300781 575.140625 671.761719 577.851563 694.148438 C 582.691406 734.191406 582.519531 782.808594 596.171875 819.671875 C 610.148438 857.429688 636.988281 884.039063 686.378906 890.210938 C 715.570313 893.738281 738.011719 884.480469 756.628906 868.980469 C 781.730469 848.078125 797.988281 810.199219 813.441406 774.398438 C 819.011719 761.488281 824.429688 748.988281 831.238281 738.949219 C 834.601563 734 837.300781 728.820313 842.859375 727.960938 C 851.128906 726.558594 860.601563 729.628906 870.800781 732.960938 C 893 740.199219 916.808594 750.601563 938.988281 756.261719 C 985.640625 767.53125 1015.421875 756.371094 1034.578125 737.710938 C 1060.570313 712.390625 1066.921875 671.46875 1067.449219 654.421875 L 1051.078125 467.371094 C 1048.390625 436.601563 1042.679688 416.511719 1028.878906 402.988281 C 1012.578125 387.03125 985.199219 380.089844 936.570313 377.089844 L 936.578125 377.089844"/>
    <path id="Trazado-copia-6" fill="#ffffff" fill-rule="evenodd" stroke="none" d="M 922.570313 398.53125 C 964.289063 409.449219 989.550781 423.710938 989.550781 439.300781 C 989.550781 450.878906 975.609375 461.71875 951.339844 471.011719 C 903.648438 489.261719 816.058594 501.511719 715.988281 501.511719 C 565.011719 501.511719 442.429688 473.640625 442.429688 439.300781 C 442.429688 424.171875 466.238281 410.289063 505.800781 399.5 C 505.589844 400.421875 505.480469 401.359375 505.480469 402.289063 C 505.480469 430.078125 599.058594 452.640625 714.308594 452.640625 C 829.570313 452.640625 923.148438 430.078125 923.148438 402.289063 C 923.148438 401.03125 922.949219 399.769531 922.570313 398.53125"/>
    <path id="Trazado-copia-5" fill="#ffffff" fill-rule="evenodd" stroke="none" d="M 714.308594 178.109375 C 605.421875 178.109375 517.019531 192.269531 517.019531 209.71875 C 517.019531 227.160156 605.421875 241.328125 714.308594 241.328125 C 823.210938 241.328125 911.609375 227.160156 911.609375 209.71875 C 911.609375 192.269531 823.210938 178.109375 714.308594 178.109375"/>
    <path id="Trazado-copia-4" fill="#ffffff" fill-rule="evenodd" stroke="none" d="M 543.691406 178.109375 C 514.351563 178.570313 495.949219 180.640625 484.121094 185.980469 C 469.160156 192.730469 464.03125 204.339844 462.269531 223.949219 C 459.101563 261.25 455.78125 283.660156 454.128906 298.511719 C 453.078125 307.910156 452.878906 314.53125 453.179688 319.738281 C 453.808594 329.839844 459.109375 355.289063 484.828125 368.640625 C 496.929688 374.921875 514.269531 377.960938 539.179688 374.140625 C 557.539063 371.011719 577.421875 364.628906 595.230469 361.441406 C 601.570313 360.300781 607.53125 359.601563 612.851563 360.25 C 623.949219 361.398438 629.058594 370.179688 634.601563 378.828125 C 644.609375 394.460938 653.738281 412.121094 667.398438 424.191406 C 680.988281 436.191406 698.179688 444.351563 723.261719 441.949219 C 752.53125 439 769.53125 428.019531 779.949219 413.25 C 792.308594 395.738281 795.019531 372.210938 797.828125 350.601563 C 799.800781 335.460938 800.140625 320.648438 815.441406 316.800781 C 850.519531 307.808594 874.710938 335.710938 898.941406 341.75 C 908.160156 344.039063 917.289063 344.210938 926.730469 339.910156 C 936.460938 335.480469 942.019531 325.738281 944.101563 311.210938 C 946.621094 293.621094 944.820313 269.011719 945.089844 241.328125 C 941.441406 268.339844 940.179688 292.578125 935.640625 309.480469 C 932.988281 319.320313 929.441406 326.359375 922.371094 328.628906 C 908.410156 333.121094 896.929688 325.191406 884.269531 316.609375 C 870.71875 307.421875 856.28125 297.148438 838.890625 292.789063 C 830.191406 290.601563 820.808594 290.148438 810.488281 291.628906 C 786.460938 295.089844 776.199219 311.621094 769.839844 332.949219 C 764.300781 351.539063 763.808594 375.429688 750.859375 390.828125 C 745.019531 397.78125 735.539063 401.101563 720.789063 401.421875 C 700.910156 402.03125 693.078125 388.910156 685.578125 376.070313 C 676.601563 360.691406 668.421875 344.378906 656.699219 333.058594 C 646.5 323.199219 633.96875 316.449219 617.519531 314.878906 C 608.011719 314.078125 597.359375 315.070313 586.191406 317.691406 C 568.53125 321.828125 549.128906 329.820313 530.980469 334.191406 C 517.039063 337.789063 507.058594 338.261719 499.800781 335.449219 C 488.199219 330.96875 484.949219 320.210938 484.160156 315.941406 L 479.441406 224.078125 C 478.421875 210.460938 479.960938 201.761719 489.378906 195.359375 C 499.558594 188.441406 516.410156 183.601563 543.691406 178.109375"/>
    <path id="Trazado-copia-3" fill="#ffffff" fill-rule="evenodd" stroke="none" d="M 722.660156 106.789063 C 716.941406 104.699219 710.761719 103.550781 704.320313 103.550781 C 674.871094 103.550781 650.949219 127.46875 650.949219 156.921875 C 650.949219 186.378906 674.871094 210.289063 704.320313 210.289063 C 733.78125 210.289063 757.691406 186.378906 757.691406 156.921875 C 757.691406 138.359375 748.191406 121.988281 733.789063 112.429688 C 740.28125 105.121094 751.589844 102.621094 763.078125 98.300781 C 781.71875 91.28125 800.398438 80.980469 809.921875 54.558594 C 811.738281 48.429688 808.25 41.980469 802.121094 40.160156 C 796 38.339844 789.550781 41.839844 787.730469 47.960938 C 782.980469 68.058594 769.398438 76.460938 756.371094 83.148438 C 742.429688 90.300781 729.128906 96 722.660156 106.789063"/>
    <path id="Trazado-copia-2" fill="#762d13" fill-rule="evenodd" stroke="none" d="M 704.320313 119.511719 C 683.671875 119.511719 666.910156 136.269531 666.910156 156.921875 C 666.910156 160.261719 669.621094 162.980469 672.96875 162.980469 C 676.308594 162.980469 679.03125 160.269531 679.03125 156.921875 C 679.03125 142.960938 690.359375 131.628906 704.320313 131.628906 C 707.671875 131.628906 710.378906 128.910156 710.378906 125.570313 C 710.378906 122.21875 707.660156 119.511719 704.320313 119.511719"/>
</svg>
